<?xml version="1.0" encoding="UTF-8"?>
<svg width="25px" height="30px" viewBox="0 0 25 30" version="1.1" xmlns="http://www.w3.org/2000/svg" xmlns:xlink="http://www.w3.org/1999/xlink">
    <title>World Class Protection Icon</title>
    <defs>
        <polygon id="path-1" points="0.0789312461 0 18.1711996 0 18.1711996 6.19356755 0.0789312461 6.19356755"></polygon>
        <polygon id="path-3" points="0.000117796266 0.0477193408 24.8120165 0.0477193408 24.8120165 22.7902859 0.000117796266 22.7902859"></polygon>
    </defs>
    <g id="Page-1" stroke="none" stroke-width="1" fill="none" fill-rule="evenodd">
        <g id="Product-Page-RD_20200518_07-Files" transform="translate(-1569.000000, -1943.000000)">
            <g id="Group-16" transform="translate(1286.000000, 1923.000000)">
                <g id="Group-20" transform="translate(283.000000, 20.000000)">
                    <g id="World-Class-Protection-Icon">
                        <g id="Icon">
                            <g id="Group-3" transform="translate(2.542373, 0.000000)">
                                <mask id="mask-2" fill="white">
                                    <use xlink:href="#path-1"></use>
                                </mask>
                                <g id="Clip-2"></g>
                                <path d="M1.17669878,5.45468249 C1.6699584,5.45468249 2.15438879,5.53549805 2.61527456,5.69555482 C2.78656161,5.75485455 2.9360699,5.8556116 3.04731819,5.98680568 C3.07674896,6.02091614 3.14326249,6.09543438 3.24097262,6.19356755 C3.26216278,6.03823376 3.30513169,5.87922654 3.33691692,5.70395125 C3.37811999,5.51713088 3.46817813,5.33555827 3.53469166,5.13299461 C3.62769288,4.94197603 3.72187132,4.73731327 3.83841715,4.53317528 C3.97085559,4.33848326 4.09505342,4.12384975 4.26987216,3.93388072 C4.58595858,3.52717907 5.01800221,3.16403386 5.5024326,2.83027612 C5.99157191,2.49966704 6.5684149,2.24515053 7.18057481,2.05203284 C7.49312953,1.97436595 7.81215903,1.87990621 8.10705529,1.85261784 C8.34956479,1.79226856 8.86048287,1.79121901 9.12477114,1.76865363 C9.78990643,1.79016946 10.45151,1.86626202 11.0689675,2.05255762 C11.6811274,2.2456753 12.2579704,2.49966704 12.7471097,2.83027612 C13.2315401,3.16403386 13.6629951,3.52717907 13.9796701,3.93388072 C14.1539002,4.12384975 14.2786867,4.33848326 14.4105365,4.53317528 C14.527671,4.73783804 14.6218494,4.94197603 14.7148506,5.13299461 C14.7813641,5.33608305 14.8714223,5.51713088 14.9126254,5.70395125 C14.9444106,5.87975131 14.9873795,6.03875854 15.0085697,6.19356755 C15.1062798,6.09595916 15.1733819,6.02091614 15.2028127,5.98680568 C15.3134724,5.85613638 15.462392,5.75537932 15.6336791,5.69660438 C16.0945649,5.53602282 16.5789953,5.45520727 17.0722549,5.45520727 C17.238833,5.45520727 17.4077656,5.46412847 17.578464,5.48354519 C17.7809477,5.50663535 17.9787224,5.5454688 18.1711996,5.59532255 C18.1435347,5.53129984 18.1199901,5.4767231 18.091148,5.41060128 C17.8668855,4.94879812 17.5696348,4.4528845 17.2105795,3.94070281 C16.8256251,3.44269009 16.3776888,2.92998362 15.8273335,2.46240792 C15.2964025,1.9775146 14.6465712,1.55821832 13.9543597,1.17932982 C13.2539075,0.803589977 12.4698719,0.523884199 11.65876,0.306102027 C10.8382303,0.108261355 9.9812064,0.0106529593 9.12477114,-0.000367343423 L8.50437062,0.0227228146 C8.32837464,0.0221980383 8.09881468,0.0510607359 7.87219779,0.0804482097 C7.41190062,0.127153302 7.00281299,0.216890053 6.59078228,0.306626803 C5.7796704,0.524408976 4.99563483,0.803589977 4.29518262,1.17932982 C3.60297103,1.55821832 2.95372836,1.97803938 2.42279736,2.46240792 C1.87244206,2.92998362 1.4239172,3.44269009 1.03955141,3.94122759 C0.679907465,4.4528845 0.38265674,4.94879812 0.158394311,5.41060128 C0.130140777,5.4767231 0.10600755,5.53129984 0.0789312461,5.59532255 C0.271408448,5.5454688 0.468594573,5.50611057 0.671666851,5.48302042 C0.842365287,5.46412847 1.01070926,5.45468249 1.17669878,5.45468249" id="Fill-1" fill="#808080" mask="url(#mask-2)"></path>
                            </g>
                            <path d="M12.5,18.7832026 C11.914701,18.7832026 11.440678,19.2501507 11.440678,19.8267139 C11.440678,20.4026578 11.914701,20.8702251 12.5,20.8702251 C13.085299,20.8702251 13.559322,20.4026578 13.559322,19.8267139 C13.559322,19.2501507 13.085299,18.7832026 12.5,18.7832026" id="Fill-4" fill="#FFFFFF"></path>
                            <g id="Group-8" transform="translate(0.000000, 6.678472)">
                                <mask id="mask-4" fill="white">
                                    <use xlink:href="#path-3"></use>
                                </mask>
                                <g id="Clip-7"></g>
                                <path d="M20.3523676,4.0897168 C19.805204,4.0897168 19.3599341,3.63631006 19.3599341,3.07914754 C19.3599341,2.52198503 19.805204,2.06857829 20.3523676,2.06857829 C20.8995313,2.06857829 21.3453902,2.52198503 21.3453902,3.07914754 C21.3453902,3.63631006 20.8995313,4.0897168 20.3523676,4.0897168 M13.9312932,16.2909162 C13.5926289,16.4966285 13.432426,16.9110518 13.4930911,17.3074829 L13.8688612,19.7568388 C13.8688612,20.3152008 13.3570364,20.7674081 12.3852172,20.7674081 C11.413398,20.7674081 10.9015732,20.3152008 10.9015732,19.7568388 L11.2826442,17.2589036 C11.3415423,16.8720684 11.1789834,16.4762372 10.8509208,16.2717243 C9.83787295,15.6395938 9.22474338,14.4095181 9.49096295,13.0618925 C9.71830974,11.9061851 10.6300528,10.9681849 11.7632529,10.7264879 C13.6886329,10.3168625 15.3831322,11.8012298 15.3831322,13.6898248 C15.3831322,14.7963532 14.8006296,15.7619416 13.9312932,16.2909162 M4.45988443,4.0897168 C3.91272077,4.0897168 3.46745089,3.63631006 3.46745089,3.07914754 C3.46745089,2.52198503 3.91272077,2.06857829 4.45988443,2.06857829 C5.00704808,2.06857829 5.45231797,2.52198503 5.45231797,3.07914754 C5.45231797,3.63631006 5.00704808,4.0897168 4.45988443,4.0897168 M22.9568431,6.48149732 C22.6299585,5.85596395 22.6564626,5.12187685 22.9833472,4.49694322 C23.2772489,3.93438301 23.402113,3.26746727 23.2878506,2.56336739 C23.0775843,1.26851931 22.0191848,0.237558743 20.7405063,0.0726290426 C20.2204358,0.00485792935 19.7245136,0.0786264862 19.2792437,0.254351585 C19.0301046,0.589608685 16.8061111,3.40780745 12.4058315,3.40780745 C8.00555203,3.40780745 5.78096955,0.588409196 5.53300841,0.254351585 C5.08773852,0.0786264862 4.59181624,0.00485792935 4.07233471,0.0726290426 C2.79365624,0.236958998 1.73525679,1.26791956 1.52440148,2.56336739 C1.40955012,3.26746727 1.53500314,3.93438301 1.82890483,4.49694322 C2.15578946,5.12187685 2.18170464,5.85596395 1.85540899,6.48149732 C0.679802251,8.73413716 0.000117796266,11.2584612 0.000117796266,13.6976215 C0.000117796266,20.6744477 5.55421174,22.7903458 12.4058315,22.7903458 C19.2580403,22.7903458 24.8121343,20.6744477 24.8121343,13.6976215 C24.8121343,11.2584612 24.1324498,8.73413716 22.9568431,6.48149732" id="Fill-6" fill="#808080" mask="url(#mask-4)"></path>
                            </g>
                        </g>
                    </g>
                </g>
            </g>
        </g>
    </g>
</svg>