<?xml version="1.0" encoding="UTF-8"?>
<svg width="37px" height="38px" viewBox="0 0 37 38" version="1.1" xmlns="http://www.w3.org/2000/svg" xmlns:xlink="http://www.w3.org/1999/xlink">
    <title>BestPrice</title>
    <g id="Page-1" stroke="none" stroke-width="1" fill="none" fill-rule="evenodd">
        <g id="Product-Page-RD_20200518_07-Files" transform="translate(-1309.000000, -1937.000000)">
            <g id="Group-16" transform="translate(1286.000000, 1923.000000)">
                <g id="BestPrice" transform="translate(23.000000, 14.000000)">
                    <g id="Page-1">
                        <path d="M19.1901929,30.3566407 C15.7224157,30.3566407 12.2124181,29.3608267 12.2124181,27.4576016 C12.2124181,25.5549468 15.7224157,24.5585625 19.1901929,24.5585625 C22.6579701,24.5585625 26.1679677,25.5549468 26.1679677,27.4576016 C26.1679677,29.3608267 22.6579701,30.3566407 19.1901929,30.3566407" id="Fill-1" fill="#808080"></path>
                        <path d="M19.1901929,23.9885075 C15.5546753,23.9885075 11.6418724,25.0744352 11.6418724,27.4578868 C11.6418724,29.8413383 15.5546753,30.927266 19.1901929,30.927266 C22.8257106,30.927266 26.7385135,29.8413383 26.7385135,27.4578868 C26.7385135,25.0744352 22.8257106,23.9885075 19.1901929,23.9885075 M19.1901929,25.1291879 C22.7292883,25.1291879 25.5974219,26.1717697 25.5974219,27.4578868 C25.5974219,28.7434335 22.7292883,29.7865857 19.1901929,29.7865857 C15.6510975,29.7865857 12.7829639,28.7434335 12.7829639,27.4578868 C12.7829639,26.1717697 15.6510975,25.1291879 19.1901929,25.1291879" id="Fill-3" fill="#808080"></path>
                        <path d="M19.1901929,27.9073719 C15.7224157,27.9073719 12.2124181,26.9115579 12.2124181,25.0083328 C12.2124181,23.105678 15.7224157,22.109864 19.1901929,22.109864 C22.6579701,22.109864 26.1679677,23.105678 26.1679677,25.0083328 C26.1679677,26.9115579 22.6579701,27.9073719 19.1901929,27.9073719" id="Fill-5" fill="#808080"></path>
                        <path d="M19.1901929,21.5395239 C15.5546753,21.5395239 11.6418724,22.6248812 11.6418724,25.0089031 C11.6418724,27.3923547 15.5546753,28.477712 19.1901929,28.477712 C22.8257106,28.477712 26.7385135,27.3923547 26.7385135,25.0089031 C26.7385135,22.6248812 22.8257106,21.5395239 19.1901929,21.5395239 M19.1901929,22.6802042 C22.7292883,22.6802042 25.5974219,23.722786 25.5974219,25.0089031 C25.5974219,26.2944499 22.7292883,27.3370317 19.1901929,27.3370317 C15.6510975,27.3370317 12.7829639,26.2944499 12.7829639,25.0089031 C12.7829639,23.722786 15.6510975,22.6802042 19.1901929,22.6802042" id="Fill-7" fill="#808080"></path>
                        <path d="M19.1901929,25.7543948 C15.7224157,25.7543948 12.2124181,24.7585808 12.2124181,22.8553557 C12.2124181,20.9527009 15.7224157,19.9568869 19.1901929,19.9568869 C22.6579701,19.9568869 26.1679677,20.9527009 26.1679677,22.8553557 C26.1679677,24.7585808 22.6579701,25.7543948 19.1901929,25.7543948" id="Fill-9" fill="#808080"></path>
                        <path d="M19.1901929,19.3865468 C15.5546753,19.3865468 11.6418724,20.4719041 11.6418724,22.855926 C11.6418724,25.2393776 15.5546753,26.3247349 19.1901929,26.3247349 C22.8257106,26.3247349 26.7385135,25.2393776 26.7385135,22.855926 C26.7385135,20.4719041 22.8257106,19.3865468 19.1901929,19.3865468 M19.1901929,20.5272271 C22.7292883,20.5272271 25.5974219,21.5698089 25.5974219,22.855926 C25.5974219,24.1414728 22.7292883,25.1840546 19.1901929,25.1840546 C15.6510975,25.1840546 12.7829639,24.1414728 12.7829639,22.855926 C12.7829639,21.5698089 15.6510975,20.5272271 19.1901929,20.5272271" id="Fill-11" fill="#808080"></path>
                        <path d="M19.1901929,23.6017028 C15.7224157,23.6017028 12.2124181,22.6058889 12.2124181,20.7026637 C12.2124181,18.8000089 15.7224157,17.804195 19.1901929,17.804195 C22.6579701,17.804195 26.1679677,18.8000089 26.1679677,20.7026637 C26.1679677,22.6058889 22.6579701,23.6017028 19.1901929,23.6017028" id="Fill-13" fill="#808080"></path>
                        <path d="M19.1901929,17.2337978 C15.5546753,17.2337978 11.6418724,18.3191551 11.6418724,20.703177 C11.6418724,23.0866286 15.5546753,24.171986 19.1901929,24.171986 C22.8257106,24.171986 26.7385135,23.0866286 26.7385135,20.703177 C26.7385135,18.3191551 22.8257106,17.2337978 19.1901929,17.2337978 M19.1901929,18.3744781 C22.7292883,18.3744781 25.5974219,19.41706 25.5974219,20.703177 C25.5974219,21.9887238 22.7292883,23.0313056 19.1901929,23.0313056 C15.6510975,23.0313056 12.7829639,21.9887238 12.7829639,20.703177 C12.7829639,19.41706 15.6510975,18.3744781 19.1901929,18.3744781" id="Fill-15" fill="#808080"></path>
                        <path d="M19.1901929,21.4487257 C15.7224157,21.4487257 12.2124181,20.4529118 12.2124181,18.5496866 C12.2124181,16.6470318 15.7224157,15.6512179 19.1901929,15.6512179 C22.6579701,15.6512179 26.1679677,16.6470318 26.1679677,18.5496866 C26.1679677,20.4529118 22.6579701,21.4487257 19.1901929,21.4487257" id="Fill-17" fill="#808080"></path>
                        <path d="M19.1901929,15.0808207 C15.5546753,15.0808207 11.6418724,16.166178 11.6418724,18.5501999 C11.6418724,20.9336515 15.5546753,22.0190088 19.1901929,22.0190088 C22.8257106,22.0190088 26.7385135,20.9336515 26.7385135,18.5501999 C26.7385135,16.166178 22.8257106,15.0808207 19.1901929,15.0808207 M19.1901929,16.221501 C22.7292883,16.221501 25.5974219,17.2640829 25.5974219,18.5501999 C25.5974219,19.8357467 22.7292883,20.8783285 19.1901929,20.8783285 C15.6510975,20.8783285 12.7829639,19.8357467 12.7829639,18.5501999 C12.7829639,17.2640829 15.6510975,16.221501 19.1901929,16.221501" id="Fill-19" fill="#F7F7F7"></path>
                        <path d="M19.1901929,19.2960338 C15.7224157,19.2960338 12.2124181,18.3002198 12.2124181,16.3969947 C12.2124181,14.4943399 15.7224157,13.4979556 19.1901929,13.4979556 C22.6579701,13.4979556 26.1679677,14.4943399 26.1679677,16.3969947 C26.1679677,18.3002198 22.6579701,19.2960338 19.1901929,19.2960338" id="Fill-21" fill="#808080"></path>
                        <path d="M19.1901929,12.9278436 C15.5546753,12.9278436 11.6418724,14.0137713 11.6418724,16.3972228 C11.6418724,18.7806744 15.5546753,19.8666021 19.1901929,19.8666021 C22.8257106,19.8666021 26.7385135,18.7806744 26.7385135,16.3972228 C26.7385135,14.0137713 22.8257106,12.9278436 19.1901929,12.9278436 M19.1901929,14.0685239 C22.7292883,14.0685239 25.5974219,15.1111058 25.5974219,16.3972228 C25.5974219,17.6827696 22.7292883,18.7259217 19.1901929,18.7259217 C15.6510975,18.7259217 12.7829639,17.6827696 12.7829639,16.3972228 C12.7829639,15.1111058 15.6510975,14.0685239 19.1901929,14.0685239" id="Fill-23" fill="#F7F7F7"></path>
                        <path d="M18.5750305,17.038057 C15.1072533,17.038057 11.5966851,16.0422431 11.5966851,14.139018 C11.5966851,12.2363632 15.1072533,11.2405492 18.5750305,11.2405492 C22.0428077,11.2405492 25.5528052,12.2363632 25.5528052,14.139018 C25.5528052,16.0422431 22.0428077,17.038057 18.5750305,17.038057" id="Fill-25" fill="#808080"></path>
                        <path d="M18.5750305,10.670152 C14.9389423,10.670152 11.0261394,11.7555094 11.0261394,14.1395313 C11.0261394,16.5229828 14.9389423,17.6083402 18.5750305,17.6083402 C22.2105481,17.6083402 26.123351,16.5229828 26.123351,14.1395313 C26.123351,11.7555094 22.2105481,10.670152 18.5750305,10.670152 M18.5750305,11.8108324 C22.1135553,11.8108324 24.9822595,12.8534142 24.9822595,14.1395313 C24.9822595,15.425078 22.1135553,16.4676598 18.5750305,16.4676598 C15.035935,16.4676598 12.1672309,15.425078 12.1672309,14.1395313 C12.1672309,12.8534142 15.035935,11.8108324 18.5750305,11.8108324" id="Fill-27" fill="#F7F7F7"></path>
                        <path d="M19.1901929,14.2768692 C15.7224157,14.2768692 12.2124181,13.2810552 12.2124181,11.3778301 C12.2124181,9.4751753 15.7224157,8.47936136 19.1901929,8.47936136 C22.6579701,8.47936136 26.1679677,9.4751753 26.1679677,11.3778301 C26.1679677,13.2810552 22.6579701,14.2768692 19.1901929,14.2768692" id="Fill-29" fill="#808080"></path>
                        <path d="M19.1901929,7.90867899 C15.5546753,7.90867899 11.6418724,8.99460667 11.6418724,11.3780582 C11.6418724,13.7615098 15.5546753,14.8474375 19.1901929,14.8474375 C22.8257106,14.8474375 26.7385135,13.7615098 26.7385135,11.3780582 C26.7385135,8.99460667 22.8257106,7.90867899 19.1901929,7.90867899 M19.1901929,9.04935933 C22.7292883,9.04935933 25.5974219,10.0919412 25.5974219,11.3780582 C25.5974219,12.663605 22.7292883,13.7067572 19.1901929,13.7067572 C15.6510975,13.7067572 12.7829639,12.663605 12.7829639,11.3780582 C12.7829639,10.0919412 15.6510975,9.04935933 19.1901929,9.04935933" id="Fill-31" fill="#F7F7F7"></path>
                        <path d="M20.0442999,11.8905089 C16.5765227,11.8905089 13.0665251,10.8946949 13.0665251,8.9914698 C13.0665251,7.088815 16.5765227,6.09243072 20.0442999,6.09243072 C23.5120771,6.09243072 27.0226453,7.088815 27.0226453,8.9914698 C27.0226453,10.8946949 23.5120771,11.8905089 20.0442999,11.8905089" id="Fill-33" fill="#808080"></path>
                        <path d="M20.0448705,5.52237572 C16.4087823,5.52237572 12.4959794,6.60830341 12.4959794,8.99175497 C12.4959794,11.3752065 16.4087823,12.4611342 20.0448705,12.4611342 C23.6803881,12.4611342 27.593191,11.3752065 27.593191,8.99175497 C27.593191,6.60830341 23.6803881,5.52237572 20.0448705,5.52237572 M20.0448705,6.66305606 C23.5833953,6.66305606 26.4520995,7.70563789 26.4520995,8.99175497 C26.4520995,10.2773017 23.5833953,11.3204539 20.0448705,11.3204539 C16.5057751,11.3204539 13.6370709,10.2773017 13.6370709,8.99175497 C13.6370709,7.70563789 16.5057751,6.66305606 20.0448705,6.66305606" id="Fill-35" fill="#F7F7F7"></path>
                        <path d="M18.5750305,9.12932102 C15.1072533,9.12932102 11.5966851,8.13350709 11.5966851,6.23028194 C11.5966851,4.3270568 15.1072533,3.33124286 18.5750305,3.33124286 C22.0428077,3.33124286 25.5528052,4.3270568 25.5528052,6.23028194 C25.5528052,8.13350709 22.0428077,9.12932102 18.5750305,9.12932102" id="Fill-37" fill="#808080"></path>
                        <path d="M18.5750305,2.76118786 C14.9389423,2.76118786 11.0261394,3.8465452 11.0261394,6.23056711 C11.0261394,8.61401868 14.9389423,9.69994636 18.5750305,9.69994636 C22.2105481,9.69994636 26.123351,8.61401868 26.123351,6.23056711 C26.123351,3.8465452 22.2105481,2.76118786 18.5750305,2.76118786 M18.5750305,3.9018682 C22.1135553,3.9018682 24.9822595,4.94445003 24.9822595,6.23056711 C24.9822595,7.51611385 22.1135553,8.55926602 18.5750305,8.55926602 C15.035935,8.55926602 12.1672309,7.51611385 12.1672309,6.23056711 C12.1672309,4.94445003 15.035935,3.9018682 18.5750305,3.9018682" id="Fill-39" fill="#F7F7F7"></path>
                        <path d="M20.0442999,6.36784799 C16.5765227,6.36784799 13.0665251,5.37203405 13.0665251,3.46880891 C13.0665251,1.5661541 16.5765227,0.570340169 20.0442999,0.570340169 C23.5120771,0.570340169 27.0226453,1.5661541 27.0226453,3.46880891 C27.0226453,5.37203405 23.5120771,6.36784799 20.0442999,6.36784799" id="Fill-41" fill="#808080"></path>
                        <path d="M20.0448705,-5.70340169e-05 C16.4087823,-5.70340169e-05 12.4959794,1.08530031 12.4959794,3.46932222 C12.4959794,5.85277378 16.4087823,6.93813113 20.0448705,6.93813113 C23.6803881,6.93813113 27.593191,5.85277378 27.593191,3.46932222 C27.593191,1.08530031 23.6803881,-5.70340169e-05 20.0448705,-5.70340169e-05 M20.0448705,1.1406233 C23.5833953,1.1406233 26.4520995,2.18320513 26.4520995,3.46932222 C26.4520995,4.75486896 23.5833953,5.79745079 20.0448705,5.79745079 C16.5057751,5.79745079 13.6370709,4.75486896 13.6370709,3.46932222 C13.6370709,2.18320513 16.5057751,1.1406233 20.0448705,1.1406233" id="Fill-43" fill="#F7F7F7"></path>
                        <path d="M27.8865657,33.4631695 C24.4187885,33.4631695 20.9082203,32.4673556 20.9082203,30.5641304 C20.9082203,28.6614756 24.4187885,27.6656617 27.8865657,27.6656617 C31.3543429,27.6656617 34.8643404,28.6614756 34.8643404,30.5641304 C34.8643404,32.4673556 31.3543429,33.4631695 27.8865657,33.4631695" id="Fill-45" fill="#808080"></path>
                        <path d="M27.8865657,27.0953215 C24.2504775,27.0953215 20.3376746,28.1806789 20.3376746,30.5647008 C20.3376746,32.9481523 24.2504775,34.0335097 27.8865657,34.0335097 C31.5220833,34.0335097 35.4348862,32.9481523 35.4348862,30.5647008 C35.4348862,28.1806789 31.5220833,27.0953215 27.8865657,27.0953215 M27.8865657,28.2360019 C31.4250905,28.2360019 34.2937947,29.2785837 34.2937947,30.5647008 C34.2937947,31.8502475 31.4250905,32.8928293 27.8865657,32.8928293 C24.3474702,32.8928293 21.4787661,31.8502475 21.4787661,30.5647008 C21.4787661,29.2785837 24.3474702,28.2360019 27.8865657,28.2360019" id="Fill-47" fill="#F7F7F7"></path>
                        <path d="M27.8865657,31.3043749 C24.4187885,31.3043749 20.9082203,30.308561 20.9082203,28.4053359 C20.9082203,26.5026811 24.4187885,25.5068671 27.8865657,25.5068671 C31.3543429,25.5068671 34.8643404,26.5026811 34.8643404,28.4053359 C34.8643404,30.308561 31.3543429,31.3043749 27.8865657,31.3043749" id="Fill-49" fill="#808080"></path>
                        <path d="M27.8865657,24.9364699 C24.2504775,24.9364699 20.3376746,26.0218273 20.3376746,28.4058492 C20.3376746,30.7893007 24.2504775,31.8746581 27.8865657,31.8746581 C31.5220833,31.8746581 35.4348862,30.7893007 35.4348862,28.4058492 C35.4348862,26.0218273 31.5220833,24.9364699 27.8865657,24.9364699 M27.8865657,26.0771503 C31.4250905,26.0771503 34.2937947,27.1197321 34.2937947,28.4058492 C34.2937947,29.6913959 31.4250905,30.7339777 27.8865657,30.7339777 C24.3474702,30.7339777 21.4787661,29.6913959 21.4787661,28.4058492 C21.4787661,27.1197321 24.3474702,26.0771503 27.8865657,26.0771503" id="Fill-51" fill="#F7F7F7"></path>
                        <path d="M28.9663235,29.1458085 C25.4985463,29.1458085 21.9879782,28.1499946 21.9879782,26.2467694 C21.9879782,24.3435443 25.4985463,23.3477303 28.9663235,23.3477303 C32.4341007,23.3477303 35.9440983,24.3435443 35.9440983,26.2467694 C35.9440983,28.1499946 32.4341007,29.1458085 28.9663235,29.1458085" id="Fill-53" fill="#808080"></path>
                        <path d="M28.9663235,22.7776753 C25.3302353,22.7776753 21.4174324,23.8630327 21.4174324,26.2470546 C21.4174324,28.6305062 25.3302353,29.7164338 28.9663235,29.7164338 C32.6018412,29.7164338 36.5146441,28.6305062 36.5146441,26.2470546 C36.5146441,23.8630327 32.6018412,22.7776753 28.9663235,22.7776753 M28.9663235,23.9183557 C32.5048484,23.9183557 35.3735526,24.9609375 35.3735526,26.2470546 C35.3735526,27.5326013 32.5048484,28.5757535 28.9663235,28.5757535 C25.4272281,28.5757535 22.558524,27.5326013 22.558524,26.2470546 C22.558524,24.9609375 25.4272281,23.9183557 28.9663235,23.9183557" id="Fill-55" fill="#F7F7F7"></path>
                        <path d="M28.9663235,26.9869569 C25.4985463,26.9869569 21.9879782,25.991143 21.9879782,24.0879178 C21.9879782,22.185263 25.4985463,21.1894491 28.9663235,21.1894491 C32.4341007,21.1894491 35.9440983,22.185263 35.9440983,24.0879178 C35.9440983,25.991143 32.4341007,26.9869569 28.9663235,26.9869569" id="Fill-57" fill="#808080"></path>
                        <path d="M28.9663235,20.6191089 C25.3302353,20.6191089 21.4174324,21.7044662 21.4174324,24.0884882 C21.4174324,26.4719397 25.3302353,27.5572971 28.9663235,27.5572971 C32.6018412,27.5572971 36.5146441,26.4719397 36.5146441,24.0884882 C36.5146441,21.7044662 32.6018412,20.6191089 28.9663235,20.6191089 M28.9663235,21.7597892 C32.5048484,21.7597892 35.3735526,22.8023711 35.3735526,24.0884882 C35.3735526,25.3740349 32.5048484,26.4166167 28.9663235,26.4166167 C25.4272281,26.4166167 22.558524,25.3740349 22.558524,24.0884882 C22.558524,22.8023711 25.4272281,21.7597892 28.9663235,21.7597892" id="Fill-59" fill="#F7F7F7"></path>
                        <path d="M9.24181451,34.0663613 C5.77403732,34.0663613 2.26403973,33.0705473 2.26403973,31.1673222 C2.26403973,29.2646674 5.77403732,28.2688535 9.24181451,28.2688535 C12.7095917,28.2688535 16.2201598,29.2646674 16.2201598,31.1673222 C16.2201598,33.0705473 12.7095917,34.0663613 9.24181451,34.0663613" id="Fill-61" fill="#808080"></path>
                        <path d="M9.24181451,27.6985133 C5.60629686,27.6985133 1.69349396,28.7838706 1.69349396,31.1678925 C1.69349396,33.5513441 5.60629686,34.6367014 9.24181451,34.6367014 C12.8773322,34.6367014 16.7907056,33.5513441 16.7907056,31.1678925 C16.7907056,28.7838706 12.8773322,27.6985133 9.24181451,27.6985133 M9.24181451,28.8391936 C12.7809099,28.8391936 15.6496141,29.8817755 15.6496141,31.1678925 C15.6496141,32.4534393 12.7809099,33.4960211 9.24181451,33.4960211 C5.70328964,33.4960211 2.8345855,32.4534393 2.8345855,31.1678925 C2.8345855,29.8817755 5.70328964,28.8391936 9.24181451,28.8391936" id="Fill-63" fill="#F7F7F7"></path>
                        <path d="M9.85024452,31.6170925 C6.38246733,31.6170925 2.87246974,30.6212785 2.87246974,28.7180534 C2.87246974,26.8153986 6.38246733,25.8195846 9.85024452,25.8195846 C13.3180217,25.8195846 16.8285899,26.8153986 16.8285899,28.7180534 C16.8285899,30.6212785 13.3180217,31.6170925 9.85024452,31.6170925" id="Fill-65" fill="#808080"></path>
                        <path d="M9.85081507,25.2492445 C6.21472687,25.2492445 2.30192397,26.3346018 2.30192397,28.7186237 C2.30192397,31.1020753 6.21472687,32.1874326 9.85081507,32.1874326 C13.4863327,32.1874326 17.3991356,31.1020753 17.3991356,28.7186237 C17.3991356,26.3346018 13.4863327,25.2492445 9.85081507,25.2492445 M9.85081507,26.3899248 C13.3893399,26.3899248 16.2580441,27.4325066 16.2580441,28.7186237 C16.2580441,30.0041705 13.3893399,31.0467523 9.85081507,31.0467523 C6.31171965,31.0467523 3.44301551,30.0041705 3.44301551,28.7186237 C3.44301551,27.4325066 6.31171965,26.3899248 9.85081507,26.3899248" id="Fill-67" fill="#F7F7F7"></path>
                        <path d="M8.00937859,29.4644005 C4.54160139,29.4644005 1.03103326,28.4685866 1.03103326,26.5653614 C1.03103326,24.6621363 4.54160139,23.6663224 8.00937859,23.6663224 C11.4771558,23.6663224 14.9871534,24.6621363 14.9871534,26.5653614 C14.9871534,28.4685866 11.4771558,29.4644005 8.00937859,29.4644005" id="Fill-69" fill="#808080"></path>
                        <path d="M8.00937859,23.0962674 C4.37329039,23.0962674 0.460487492,24.182195 0.460487492,26.5656466 C0.460487492,28.9490982 4.37329039,30.0350259 8.00937859,30.0350259 C11.6448962,30.0350259 15.5576991,28.9490982 15.5576991,26.5656466 C15.5576991,24.182195 11.6448962,23.0962674 8.00937859,23.0962674 M8.00937859,24.2369477 C11.5479035,24.2369477 14.4166076,25.2795295 14.4166076,26.5656466 C14.4166076,27.8511933 11.5479035,28.8943455 8.00937859,28.8943455 C4.47028317,28.8943455 1.60157903,27.8511933 1.60157903,26.5656466 C1.60157903,25.2795295 4.47028317,24.2369477 8.00937859,24.2369477" id="Fill-71" fill="#F7F7F7"></path>
                        <path d="M8.00937859,26.7032127 C4.54160139,26.7032127 1.03103326,25.7073987 1.03103326,23.8041736 C1.03103326,21.9009484 4.54160139,20.9051345 8.00937859,20.9051345 C11.4771558,20.9051345 14.9871534,21.9009484 14.9871534,23.8041736 C14.9871534,25.7073987 11.4771558,26.7032127 8.00937859,26.7032127" id="Fill-73" fill="#808080"></path>
                        <path d="M8.00937859,20.3350225 C4.37329039,20.3350225 0.460487492,21.4203798 0.460487492,23.8044017 C0.460487492,26.1878533 4.37329039,27.273781 8.00937859,27.273781 C11.6448962,27.273781 15.5576991,26.1878533 15.5576991,23.8044017 C15.5576991,21.4203798 11.6448962,20.3350225 8.00937859,20.3350225 M8.00937859,21.4757028 C11.5479035,21.4757028 14.4166076,22.5182846 14.4166076,23.8044017 C14.4166076,25.0899485 11.5479035,26.1331006 8.00937859,26.1331006 C4.47028317,26.1331006 1.60157903,25.0899485 1.60157903,23.8044017 C1.60157903,22.5182846 4.47028317,21.4757028 8.00937859,21.4757028" id="Fill-75" fill="#F7F7F7"></path>
                        <path d="M7.54860583,23.9417396 C4.08082863,23.9417396 0.570831044,22.9459257 0.570831044,21.0427005 C0.570831044,19.1400457 4.08082863,18.1442318 7.54860583,18.1442318 C11.016383,18.1442318 14.5269512,19.1400457 14.5269512,21.0427005 C14.5269512,22.9459257 11.016383,23.9417396 7.54860583,23.9417396" id="Fill-77" fill="#808080"></path>
                        <path d="M7.54860583,17.5738346 C3.91308817,17.5738346 0.000285272886,18.6591919 0.000285272886,21.0432139 C0.000285272886,23.4266654 3.91308817,24.5120228 7.54860583,24.5120228 C11.184694,24.5120228 15.0974969,23.4266654 15.0974969,21.0432139 C15.0974969,18.6591919 11.184694,17.5738346 7.54860583,17.5738346 M7.54860583,18.7145149 C11.0877012,18.7145149 13.9564054,19.7570968 13.9564054,21.0432139 C13.9564054,22.3287606 11.0877012,23.3713424 7.54860583,23.3713424 C4.01008095,23.3713424 1.14137682,22.3287606 1.14137682,21.0432139 C1.14137682,19.7570968 4.01008095,18.7145149 7.54860583,18.7145149" id="Fill-79" fill="#F7F7F7"></path>
                        <path d="M8.76603639,21.7890477 C5.2982592,21.7890477 1.78826161,20.7932338 1.78826161,18.8900086 C1.78826161,16.9873538 5.2982592,15.9909695 8.76603639,15.9909695 C12.2338136,15.9909695 15.7438112,16.9873538 15.7438112,18.8900086 C15.7438112,20.7932338 12.2338136,21.7890477 8.76603639,21.7890477" id="Fill-81" fill="#808080"></path>
                        <path d="M8.76603639,15.4208575 C5.13051874,15.4208575 1.21771584,16.5067852 1.21771584,18.8902367 C1.21771584,21.2736883 5.13051874,22.359616 8.76603639,22.359616 C12.401554,22.359616 16.3143569,21.2736883 16.3143569,18.8902367 C16.3143569,16.5067852 12.401554,15.4208575 8.76603639,15.4208575 M8.76603639,16.5615378 C12.3045613,16.5615378 15.1732654,17.6041197 15.1732654,18.8902367 C15.1732654,20.1757835 12.3045613,21.2189357 8.76603639,21.2189357 C5.22751152,21.2189357 2.35880738,20.1757835 2.35880738,18.8902367 C2.35880738,17.6041197 5.22751152,16.5615378 8.76603639,16.5615378" id="Fill-83" fill="#F7F7F7"></path>
                        <path d="M8.76603639,19.6301961 C5.2982592,19.6301961 1.78826161,18.6343821 1.78826161,16.731157 C1.78826161,14.8285022 5.2982592,13.8326883 8.76603639,13.8326883 C12.2338136,13.8326883 15.7438112,14.8285022 15.7438112,16.731157 C15.7438112,18.6343821 12.2338136,19.6301961 8.76603639,19.6301961" id="Fill-85" fill="#808080"></path>
                        <path d="M8.76603639,13.2623481 C5.13051874,13.2623481 1.21771584,14.3477054 1.21771584,16.7317273 C1.21771584,19.1151789 5.13051874,20.2005363 8.76603639,20.2005363 C12.401554,20.2005363 16.3143569,19.1151789 16.3143569,16.7317273 C16.3143569,14.3477054 12.401554,13.2623481 8.76603639,13.2623481 M8.76603639,14.4030284 C12.3045613,14.4030284 15.1732654,15.4456103 15.1732654,16.7317273 C15.1732654,18.0172741 12.3045613,19.0598559 8.76603639,19.0598559 C5.22751152,19.0598559 2.35880738,18.0172741 2.35880738,16.7317273 C2.35880738,15.4456103 5.22751152,14.4030284 8.76603639,14.4030284" id="Fill-87" fill="#F7F7F7"></path>
                        <path d="M8.76603639,17.4713445 C5.2982592,17.4713445 1.78826161,16.4755305 1.78826161,14.5723054 C1.78826161,12.6696506 5.2982592,11.6738367 8.76603639,11.6738367 C12.2338136,11.6738367 15.7438112,12.6696506 15.7438112,14.5723054 C15.7438112,16.4755305 12.2338136,17.4713445 8.76603639,17.4713445" id="Fill-89" fill="#808080"></path>
                        <path d="M8.76603639,11.1034965 C5.13051874,11.1034965 1.21771584,12.1888538 1.21771584,14.5728757 C1.21771584,16.9563273 5.13051874,18.0416846 8.76603639,18.0416846 C12.401554,18.0416846 16.3143569,16.9563273 16.3143569,14.5728757 C16.3143569,12.1888538 12.401554,11.1034965 8.76603639,11.1034965 M8.76603639,12.2441768 C12.3045613,12.2441768 15.1732654,13.2867587 15.1732654,14.5728757 C15.1732654,15.8584225 12.3045613,16.9010043 8.76603639,16.9010043 C5.22751152,16.9010043 2.35880738,15.8584225 2.35880738,14.5728757 C2.35880738,13.2867587 5.22751152,12.2441768 8.76603639,12.2441768" id="Fill-91" fill="#F7F7F7"></path>
                        <path d="M18.2574647,19.3915087 C13.2155517,19.3915087 9.12873234,23.4774257 9.12873234,28.5169514 C9.12873234,33.5564772 13.2155517,37.6423941 18.2574647,37.6423941 C23.2993777,37.6423941 27.386197,33.5564772 27.386197,28.5169514 C27.386197,23.4774257 23.2993777,19.3915087 18.2574647,19.3915087 M18.2574647,21.6728694 C22.0327661,21.6728694 25.1040139,24.7430105 25.1040139,28.5169514 C25.1040139,32.2908923 22.0327661,35.3610335 18.2574647,35.3610335 C14.4821633,35.3610335 11.4109154,32.2908923 11.4109154,28.5169514 C11.4109154,24.7430105 14.4821633,21.6728694 18.2574647,21.6728694" id="Fill-93" fill="#808080"></path>
                        <path d="M18.2574647,21.6728694 C14.4821633,21.6728694 11.4109154,24.7430105 11.4109154,28.5169514 C11.4109154,32.2908923 14.4821633,35.3610335 18.2574647,35.3610335 C22.0327661,35.3610335 25.1040139,32.2908923 25.1040139,28.5169514 C25.1040139,24.7430105 22.0327661,21.6728694 18.2574647,21.6728694" id="Fill-95" fill="#FFFFFF"></path>
                        <path d="M23.5366677,24.1865296 C23.7757263,24.4774031 23.9976686,24.7819648 24.1870898,25.1099104 C24.4609518,24.079876 25.2317591,23.2762667 25.5193142,23.0030738 C25.5079033,22.9882449 25.4976335,22.9734161 25.4862226,22.9585872 C25.1878271,23.0909062 24.4529642,23.4599163 23.5366677,24.1865296" id="Fill-97" fill="#808080"></path>
                        <path d="M25.4795472,22.9338915 C22.2816381,23.6639269 20.1312511,26.1956669 19.0494963,27.8142923 C18.7453954,28.2101084 18.4629753,28.6732246 18.2301926,29.2116258 L18.2301926,29.2121961 C17.0172123,26.4038411 14.452609,25.6538438 14.452609,25.6538438 C16.353097,27.6055478 17.3658158,30.1521167 17.8507797,31.7405141 C17.9643183,32.1135165 18.4960669,32.1135165 18.6096055,31.7405141 C18.714586,31.3977396 18.8435293,31.0099083 19.0015705,30.59356 C21.1365528,25.1085986 24.7618006,23.2772363 25.4955224,22.9544238 C25.4903875,22.9475797 25.4846821,22.9401653 25.4795472,22.9338915" id="Fill-99" fill="#808080"></path>
                    </g>
                </g>
            </g>
        </g>
    </g>
</svg>