<?xml version="1.0" encoding="UTF-8"?>
<svg width="34px" height="27px" viewBox="0 0 34 27" version="1.1" xmlns="http://www.w3.org/2000/svg" xmlns:xlink="http://www.w3.org/1999/xlink">
    <title>wood</title>
    <g id="Page-1" stroke="none" stroke-width="1" fill="none" fill-rule="evenodd">
        <g id="Product-Page-RD_20200518_07-Files" transform="translate(-1433.000000, -1945.000000)" fill="#808080" fill-rule="nonzero">
            <g id="Group-16" transform="translate(1286.000000, 1923.000000)">
                <g id="Group-21" transform="translate(147.000000, 20.000000)">
                    <g id="wood" transform="translate(0.000000, 2.000000)">
                        <path d="M29.9856659,8.24441114 C29.2110714,5.62904751 27.9741459,2.43432209 25.534424,1.0321635 C23.1521694,-0.467301508 19.7810937,-0.0458092582 17.1345066,0.510830807 C12.1091781,1.56768672 7.13412289,3.17864868 2.25568292,4.78074157 C1.18212498,5.13330843 0.0209860049,6.02089171 0,7.27447217 C-0.0203368577,8.52518073 1.28124967,9.1885031 2.37873136,9.12793999 C5.1748002,8.97404041 7.93883127,8.36579078 10.7244439,8.07674338 C12.0251103,7.9417645 15.341981,7.5846364 18.013914,7.74385742 C19.093662,7.8006195 20.5475743,7.94269365 22.1934622,8.27752236 C25.5740739,8.9650024 28.565548,10.2354763 31,12 C30.6885728,10.7377194 30.3528037,9.48422342 29.9856659,8.24441114 Z" id="Path"></path>
                        <path d="M33.9289119,23.5290453 C33.3867134,20.5988724 32.8317214,17.6398817 32.1770798,14.7077243 C29.3316254,12.0250902 25.7942805,10.6766119 23,10 C24.6386057,12.36702 26.1759082,16.0788945 26.7494376,17.4484253 C27.8665581,20.115874 28.6838592,22.9191283 29.9283919,25.5304947 C30.4168928,26.5554211 31.6625569,27.413826 32.7855954,26.7870843 C33.9115929,26.1590483 34.1410917,24.6742468 33.9289119,23.5290453 Z" id="Path"></path>
                    </g>
                </g>
            </g>
        </g>
    </g>
</svg>